<?xml version="1.0" encoding="utf-8"?>
<!-- Generator: Adobe Illustrator 26.3.1, SVG Export Plug-In . SVG Version: 6.00 Build 0)  -->
<svg version="1.1" id="レイヤー_1" xmlns="http://www.w3.org/2000/svg" xmlns:xlink="http://www.w3.org/1999/xlink" x="0px"
	 y="0px" viewBox="0 0 300 300" style="enable-background:new 0 0 300 300;" xml:space="preserve">
<g>
	<path d="M150,0.5c-4.6,0-8.4,3.7-8.4,8.4s3.7,13.4,8.4,13.4s8.4-8.7,8.4-13.4S154.6,0.5,150,0.5z"/>
	<path d="M150,277.8c-4.6,0-8.4,8.7-8.4,13.4s3.7,8.4,8.4,8.4s8.4-3.7,8.4-8.4S154.6,277.8,150,277.8z"/>
	<path d="M22.2,150c0-4.6-8.7-8.4-13.4-8.4s-8.4,3.7-8.4,8.4s3.7,8.4,8.4,8.4S22.2,154.6,22.2,150z"/>
	<path d="M291.1,141.6c-4.6,0-13.4,3.7-13.4,8.4s8.7,8.4,13.4,8.4s8.4-3.7,8.4-8.4S295.8,141.6,291.1,141.6z"/>
</g>
<g>
	<path d="M111.3,5.6c-4.4,1.2-7.2,5.7-5.9,10.3c1.2,4.5,7,12,11.6,10.8s5.9-10.6,4.6-15.1C120.4,7,115.7,4.4,111.3,5.6z"/>
	<path d="M183.1,273.4c-4.4,1.2-5.9,10.6-4.6,15.1c1.2,4.5,5.7,7.2,10.3,5.9s7.2-5.7,5.9-10.3S187.5,272.2,183.1,273.4z"/>
	<path d="M26.5,183.1c-1.2-4.4-10.6-5.9-15.1-4.6s-7.2,5.7-5.9,10.3c1.2,4.5,5.7,7.2,10.3,5.9S27.7,187.5,26.5,183.1z"/>
	<path d="M284.1,105.4c-4.4,1.2-12,7-10.8,11.6c1.2,4.5,10.6,5.9,15.1,4.6c4.5-1.2,7.2-5.7,5.9-10.3
		C293.2,106.8,288.6,104.1,284.1,105.4z"/>
</g>
<g>
	<path d="M75.2,20.5c-4,2.3-5.4,7.4-3.1,11.5s9.9,9.8,14,7.4c4.1-2.3,2.9-11.7,0.6-15.8C84.3,19.5,79.2,18.2,75.2,20.5z"/>
	<path d="M213.9,260.7c-4,2.3-2.9,11.7-0.6,15.8c2.3,4.1,7.4,5.4,11.5,3.1c4.1-2.3,5.4-7.4,3.1-11.5
		C225.5,264,217.9,258.4,213.9,260.7z"/>
	<path d="M39.3,213.9c-2.3-4-11.7-2.9-15.8-0.6s-5.4,7.4-3.1,11.5s7.4,5.4,11.5,3.1C36,225.5,41.6,217.9,39.3,213.9z"/>
	<path d="M268,72.2c-4,2.3-9.8,9.9-7.4,14c2.4,4.1,11.7,2.9,15.8,0.6c4.1-2.3,5.4-7.4,3.1-11.5C277.1,71.2,272,69.8,268,72.2z"/>
</g>
<g>
	<path d="M44.2,44.3c-3.3,3.3-3.3,8.6,0,11.9s12.1,6.9,15.4,3.5c3.3-3.3-0.2-12.1-3.5-15.4C52.8,40.9,47.5,41,44.2,44.3z"/>
	<path d="M240.3,240.3c-3.3,3.3,0.2,12.1,3.5,15.4c3.3,3.3,8.6,3.3,11.9,0c3.3-3.3,3.3-8.6,0-11.9
		C252.4,240.5,243.6,237.1,240.3,240.3z"/>
	<path d="M59.6,240.3c-3.3-3.3-12.1,0.2-15.4,3.5c-3.3,3.3-3.3,8.6,0,11.9c3.3,3.3,8.6,3.3,11.9,0C59.4,252.4,62.8,243.6,59.6,240.3
		z"/>
	<path d="M243.8,44.3c-3.3,3.3-6.9,12.1-3.5,15.4c3.3,3.3,12.1-0.2,15.4-3.5c3.3-3.3,3.3-8.6,0-11.9
		C252.3,40.9,247.1,40.9,243.8,44.3z"/>
</g>
<g>
	<path d="M20.5,75.2c-2.3,4-1,9.1,3.1,11.5c4.1,2.3,13.5,3.5,15.8-0.6c2.3-4.1-3.3-11.6-7.4-14S22.8,71.2,20.5,75.2z"/>
	<path d="M260.6,213.9c-2.3,4,3.3,11.6,7.4,14c4.1,2.3,9.1,1,11.5-3.1c2.3-4.1,1-9.1-3.1-11.5C272.4,210.9,262.9,209.9,260.6,213.9z
		"/>
	<path d="M86,260.6c-4-2.3-11.6,3.3-14,7.4s-1,9.1,3.1,11.5c4.1,2.4,9.1,1,11.5-3.1S90,262.9,86,260.6z"/>
	<path d="M213.2,23.6c-2.3,4-3.5,13.5,0.6,15.8s11.6-3.3,14-7.4s1-9.1-3.1-11.5S215.6,19.5,213.2,23.6z"/>
</g>
<g>
	<path d="M5.5,111.3c-1.2,4.4,1.4,9.1,5.9,10.3c4.5,1.2,13.9-0.1,15.1-4.6s-6.2-10.4-10.8-11.6S6.7,106.8,5.5,111.3z"/>
	<path d="M273.4,183.1c-1.2,4.4,6.2,10.4,10.8,11.6s9.1-1.4,10.3-5.9c1.2-4.5-1.4-9.1-5.9-10.3C284,177.2,274.6,178.6,273.4,183.1z"
		/>
	<path d="M116.9,273.4c-4.4-1.2-10.4,6.2-11.6,10.8c-1.2,4.5,1.4,9.1,5.9,10.3c4.5,1.2,9.1-1.4,10.3-5.9
		C122.7,284,121.3,274.6,116.9,273.4z"/>
	<path d="M178.3,11.5c-1.2,4.4,0.1,13.9,4.6,15.1c4.5,1.2,10.4-6.2,11.6-10.8s-1.4-9.1-5.9-10.3C184.1,4.4,179.6,7,178.3,11.5z"/>
</g>
<g>
	<path d="M-400.6-28.9c-4.6,0-8.4,3.7-8.4,8.4s3.7,8.4,8.4,8.4c4.7,0,8.4-3.7,8.4-8.4S-396-28.9-400.6-28.9z"/>
	<path d="M-400.6,253.4c-4.6,0-8.4,3.7-8.4,8.4s3.7,8.4,8.4,8.4c4.7,0,8.4-3.7,8.4-8.4S-396,253.4-400.6,253.4z"/>
	<path d="M-366.2-7.7c0.7,0.2,1.4,0.3,2.2,0.3c3.7,0,7.1-2.5,8.1-6.2c1.2-4.4-1.5-9-5.9-10.2l0,0c-2.2-0.6-4.4-0.3-6.3,0.8
		c-1.9,1.1-3.3,2.9-3.9,5.1C-373.3-13.5-370.7-8.9-366.2-7.7z"/>
	<path d="M-435,248.9c-2.2-0.6-4.4-0.3-6.3,0.8c-1.9,1.1-3.3,2.9-3.9,5.1c-0.6,2.2-0.3,4.4,0.8,6.3s2.9,3.3,5.1,3.9
		c0.7,0.2,1.4,0.3,2.2,0.3c1.4,0,2.9-0.4,4.2-1.1c1.9-1.1,3.3-2.9,3.9-5.1C-427.9,254.7-430.5,250.1-435,248.9z"/>
	<path d="M-433-23c-1.9-1.1-4.2-1.4-6.3-0.8l0,0c-4.4,1.2-7.1,5.8-5.9,10.2c1,3.7,4.4,6.2,8.1,6.2c0.7,0,1.4-0.1,2.2-0.3
		c4.4-1.2,7.1-5.8,5.9-10.2C-429.6-20.1-431-21.9-433-23z"/>
	<path d="M-359.9,249.7c-1.9-1.1-4.2-1.4-6.3-0.8c-4.4,1.2-7.1,5.8-5.9,10.2c0.6,2.2,2,4,3.9,5.1c1.3,0.7,2.7,1.1,4.2,1.1
		c0.7,0,1.5-0.1,2.2-0.3c2.2-0.6,4-2,5.1-3.9s1.4-4.2,0.8-6.3C-356.6,252.6-358,250.8-359.9,249.7z"/>
	<path d="M-325.8-8.9c-4-2.3-9.1-0.9-11.4,3.1c-2.3,4-0.9,9.1,3.1,11.4c1.3,0.7,2.7,1.1,4.2,1.1c0.7,0,1.5-0.1,2.2-0.3
		c2.2-0.6,4-2,5.1-3.9C-320.5-1.4-321.9-6.6-325.8-8.9z"/>
	<path d="M-467,235.6c-4-2.3-9.1-0.9-11.4,3.1c-2.3,4-0.9,9.1,3.1,11.4c1.3,0.7,2.7,1.1,4.2,1.1c0.7,0,1.5-0.1,2.2-0.3
		c2.2-0.6,4-2,5.1-3.9C-461.6,243-463,237.9-467,235.6z"/>
	<path d="M-469-9.7c-2.2-0.6-4.4-0.3-6.3,0.8c-4,2.3-5.4,7.4-3.1,11.4c1.5,2.7,4.4,4.2,7.2,4.2c1.4,0,2.9-0.4,4.2-1.1
		c1.9-1.1,3.3-2.9,3.9-5.1s0.3-4.4-0.8-6.3C-465.1-7.7-466.9-9.1-469-9.7z"/>
	<path d="M-334.2,235.6c-4,2.3-5.4,7.4-3.1,11.4c1.5,2.7,4.4,4.2,7.2,4.2c1.4,0,2.9-0.4,4.2-1.1c4-2.3,5.4-7.4,3.1-11.4
		S-330.2,233.3-334.2,235.6z"/>
	<path d="M-506.3,14.9L-506.3,14.9c-3.3,3.3-3.3,8.6,0,11.8c1.6,1.6,3.7,2.4,5.9,2.4s4.3-0.9,5.9-2.4c1.6-1.6,2.4-3.7,2.4-5.9
		s-0.9-4.3-2.4-5.9C-497.8,11.6-503.1,11.6-506.3,14.9z"/>
	<path d="M-306.7,214.5c-3.3,3.3-3.3,8.6,0,11.8c1.6,1.6,3.7,2.4,5.9,2.4c2.2,0,4.3-0.9,5.9-2.4c1.6-1.6,2.4-3.7,2.4-5.9
		s-0.9-4.3-2.4-5.9C-298.1,211.2-303.4,211.2-306.7,214.5z"/>
	<path d="M-533.4,120.6c0-4.6-3.7-8.4-8.4-8.4s-8.4,3.7-8.4,8.4s3.7,8.4,8.4,8.4S-533.4,125.2-533.4,120.6z"/>
	<path d="M-259.5,112.2c-4.6,0-8.4,3.7-8.4,8.4s3.7,8.4,8.4,8.4c4.7,0,8.4-3.7,8.4-8.4S-254.8,112.2-259.5,112.2z"/>
	<path d="M-539.1,92.1c0.7,0.2,1.4,0.3,2.2,0.3c3.7,0,7.1-2.5,8.1-6.2c1.2-4.4-1.5-9-5.9-10.2c-4.5-1.2-9,1.5-10.2,5.9
		c-0.6,2.2-0.3,4.4,0.8,6.3C-543.1,90.2-541.3,91.6-539.1,92.1z"/>
	<path d="M-262.1,149.1c-4.4-1.2-9,1.5-10.2,5.9s1.5,9,5.9,10.2c0.7,0.2,1.5,0.3,2.2,0.3c1.4,0,2.9-0.4,4.2-1.1
		c1.9-1.1,3.3-2.9,3.9-5.1c0.6-2.2,0.3-4.4-0.8-6.3C-258,151.1-259.9,149.6-262.1,149.1z"/>
	<path d="M-528.9,155c-1.2-4.4-5.8-7.1-10.2-5.9c-2.2,0.6-4,2-5.1,3.9c-1.1,1.9-1.4,4.2-0.8,6.3c1,3.7,4.4,6.2,8.1,6.2
		c0.7,0,1.4-0.1,2.2-0.3C-530.3,164-527.7,159.4-528.9,155z"/>
	<path d="M-272.3,86.2c1,3.7,4.4,6.2,8.1,6.2c0.7,0,1.4-0.1,2.2-0.3c2.2-0.6,4-2,5.1-3.9c1.1-1.9,1.4-4.2,0.8-6.3
		c-0.6-2.2-2-4-3.9-5.1s-4.2-1.4-6.3-0.8C-270.9,77.2-273.5,81.8-272.3,86.2z"/>
	<path d="M-527,57.3c1.3,0.7,2.7,1.1,4.2,1.1c0.7,0,1.5-0.1,2.2-0.3c2.2-0.6,4-2,5.1-3.9c2.3-4,0.9-9.1-3.1-11.4s-9.1-0.9-11.4,3.1
		c-1.1,1.9-1.4,4.2-0.8,6.3C-530.3,54.3-528.9,56.1-527,57.3z"/>
	<path d="M-274.2,183.9L-274.2,183.9c-4-2.3-9.1-0.9-11.4,3.1s-0.9,9.1,3.1,11.4c1.3,0.8,2.7,1.1,4.2,1.1c2.9,0,5.7-1.5,7.2-4.2
		C-268.8,191.4-270.2,186.2-274.2,183.9z"/>
	<path d="M-527,183.9L-527,183.9c-4,2.3-5.4,7.4-3.1,11.4c1.5,2.7,4.4,4.2,7.2,4.2c1.4,0,2.9-0.4,4.2-1.1c1.9-1.1,3.3-2.9,3.9-5.1
		s0.3-4.4-0.8-6.3C-517.9,183-523,181.6-527,183.9z"/>
	<path d="M-278.3,58.4c1.4,0,2.9-0.4,4.2-1.1c1.9-1.1,3.3-2.9,3.9-5.1s0.3-4.4-0.8-6.3c-2.3-4-7.4-5.4-11.4-3.1s-5.4,7.4-3.1,11.4
		C-284.1,56.9-281.2,58.4-278.3,58.4z"/>
	<path d="M-506.3,214.5L-506.3,214.5c-3.3,3.3-3.3,8.6,0,11.8c1.6,1.6,3.7,2.4,5.9,2.4s4.3-0.9,5.9-2.4c1.6-1.6,2.4-3.7,2.4-5.9
		s-0.9-4.3-2.4-5.9C-497.8,211.2-503.1,211.2-506.3,214.5z"/>
	<path d="M-306.7,14.9L-306.7,14.9c-3.3,3.3-3.3,8.6,0,11.8c1.6,1.6,3.7,2.4,5.9,2.4c2.2,0,4.3-0.9,5.9-2.4c1.6-1.6,2.4-3.7,2.4-5.9
		s-0.9-4.3-2.4-5.9C-298.1,11.6-303.4,11.6-306.7,14.9z"/>
</g>
</svg>
